<?xml version="1.0" encoding="UTF-8"?>
<svg version="1.1" viewBox="0 0 980 980" width="980" height="980" xmlns="http://www.w3.org/2000/svg">
<path transform="translate(0)" d="m0 0h980v980h-980z"/>
<path transform="translate(464,223)" d="m0 0h6l6 4 2 7-3 17-6 21-11 28-16 32-12 21 20-4 11-1h11l21 3 18 6 14 7 11 8 3 5v7l-4 6-3 2h-9l-15-9-14-6-13-3-8-1h-14l-17 3-18 7-12 8-10 9-8 9-8 13-5 12-4 18v21l3 15 6 15 8 13 9 10 10 9 13 8 16 6 16 3 6 4 3 9-3 7-3 3-3 1-13-1-16-4-16-7-10-6-13-10-11-11-8-11-6-10-6-13-4-13-3-18v-19l3-18 5-17 4-22 3-27 1-24v-14l-1-27-2-24 3-8 4-4 2-1h9l5 4 2 12 2 24 1 20 10-37 5-27 2-15 4-5 7-3 7 1 5 6v15l-4 25-7 30 12-24 11-27 5-16 4-18 4-6z" fill="#FCC5FD"/>
<path transform="translate(454,387)" d="m0 0h24l15 4 16 8 12 10v2h2l9 13 6 12 3 11 1 6v19l-4 16-5 12-8 11-6 7-10 8-16 8-15 4h-23l-16-4-14-7-11-9-7-7-9-14-5-13-3-16v-12l3-16 7-16 8-11 10-10 14-9 13-5z"/>
<path transform="translate(470,326)" d="m0 0h74l8 4 7 8 3 8v30h48l8 3 7 6 3 7v140l-4 10-8 7-8 3h-91l-5-4v-8l5-4 89-1 5-5v-135l-1-1-63-1-1-1-1-44-1-4-3-1-70-1-5-4-1-5 3-6z" fill="#FDC1FE"/>
<path transform="translate(454,387)" d="m0 0h24l15 4 16 8 12 10v2h2l9 13 6 12 3 11 1 6v19l-4 16-5 12-8 11-6 7-10 8-16 8-15 4h-23l-16-4-14-7-11-9-7-7-9-14-5-13-3-16v-12l3-16 7-16 8-11 10-10 14-9 13-5zm9 15-16 3-14 7-10 8v2h-2l-7 10-5 11-3 13v13l4 16 7 13 7 8 12 9 11 5 16 3 19-2 12-5 11-7 8-8 7-11 5-13 1-5v-19l-4-14-6-11-11-12-11-7-12-5-13-2z" fill="#FD31FE"/>
<path transform="translate(671,644)" d="m0 0 4 1 1 1v7l-4 11-6 10-2 3h-3l-1 4-5 10 9-7 5-3h7l3 2-1 9-2 7 11-8 13-10 4 2-3 9-2 3v3l16-10 9-6h5l1 1v9l-7 19 2-1h11l3 2v6l-4-1-3-3-10 1-10 19-8 14-7 8-4 1-6-4v-7l6-12 8-10 8-8 4-1 2-5 6-16-8 3-11 7-9 2-3-3v-7l-9 8-6 4-5-1-1-2v-12l1-5-10 6-9 8-6 7-4-1 1-9v-2l-14 9-12 4h-7l-3-2-6 15-6 14-4 5-5 1-4-7 2-9 7-11 6-9h2l3-11 1-5-8 6-8 7-3 2h-7l-1-2v-7l-16 12-2 1h-7l-3-5 1-7 6-8 7-6 9-4h6l3 3 6-2 1 1v6l-4 9-1 2h3v-2l8-7 7-4 6-5 3-3 4 2 1 5-1 4 11-8 5-2 6 1 2 2v7l-2 6 9-6 7-7 11-23 9-14z" fill="#FD31FE"/>
<path transform="translate(463,431)" d="m0 0 13 1 10 5 5 4 7 11 2 8v9l-3 10-6 9-8 6-8 3-4 1h-8l-11-3-8-6-5-5-4-8-2-8 1-13 5-10 4-5 9-6 5-2z"/>
<path transform="translate(504,645)" d="m0 0h8l2 5-1 6-3 5-4-2 3-6 2-3-8 4-14 11-9 11-7 11-5 14 1 3 7-5h2v-2h2l2-4 4-5h2l2-4 10-14 4-5 4 1 2 3-1 9-6 13 4-2 13-7 6-5h5l4 10-2 5-6 9-1 2 5-1 10-6 5-5h2l-1 7-10 8h-2v2l-6 3-7-1-3-5 1-8 6-11-10 6-8 5-5 2-5 4-8 20-8 15h-2l-2 5-6 5-5-2-1-3v-10l7-14h2l1-4h2l2-5 10-10 5-10v-3l-3 3h-2l-1 4-7 8h-2l-2 4-4 3h-7l-5-3-1-2v-9l4-10 9-16 12-13 13-9z" fill="#FC30FD"/>
<path transform="translate(328,644)" d="m0 0 4 1 1 1v8l-5 13-7 10h-3l-1 4-6 11h2v-2l5-2v-2l8-5h7l3 2-1 9-2 7 8-6 16-11 8-3h6l5 3 1 4 1 2v9l-6 8-8 5-2 1h-7l-5-4-2-4 1-9-5 5-5 3-5 5-5 1-3-2-1-8 2-10-10 6-5 4-5 5-6 7-3-2v-7l1-4-2-1 1-5 8-8 8-16 10-18z" fill="#FDE0FD"/>
<path transform="translate(293,641)" d="m0 0 12 2 5 2 5 8v9l-3 7-5 6-7 4-12 3-14 1h-6l-4 5-7 16-2 6-3 1-4-4-1-4 6-12h2l1-7 12-22 3-8 4-1 3 5 1 4-1 2h-2l-2 6-3 6h10l12-3 8-5 3-5v-10l-4-3-12-2-14 1-15 4-6 3-6 6-1 4-3 1-2-2v-6l10-7 12-6 18-4z" fill="#FDDFFE"/>
<path transform="translate(463,431)" d="m0 0 13 1 10 5 5 4 7 11 2 8v9l-3 10-6 9-8 6-8 3-4 1h-8l-11-3-8-6-5-5-4-8-2-8 1-13 5-10 4-5 9-6 5-2zm-1 6-9 3-9 8-4 8-1 4v8l3 9 4 6 6 5 10 4h9l9-3 10-9 4-11v-9l-3-9-9-10-11-4z" fill="#FD31FE"/>
<path transform="translate(414,650)" d="m0 0 4 1v7l11-3 4 1-2 5-4 4-3-1-9 2-7 9-4 6-2 9v8l2 3v7l-4 2-3-3-2-6v-11l1-3h-2l-1 3-8 7-2 2h-3v-6l8-7 4-5 5-5 4-6-2-1-15 4-9 3h-4l-1-4 5-5 29-7h3l2-4z" fill="#FDDEFE"/>
<path transform="translate(461,448)" d="m0 0h11l6 4 4 4 1 4v10l-4 6-5 4-2 1h-10l-6-3-5-6-1-3v-9l3-6 6-5z" fill="#FD31FE"/>
<path transform="translate(434,679)" d="m0 0h6l4 2 3 8-1 9-6 8-10 5h-7l-6-6v-10h-2v2l-3-1 1-5 9-7 7-4z" fill="#FDDEFD"/>
<path transform="translate(516,401)" d="m0 0 3 1h-2l1 4 4 1 5 6 10 15v4h2l3 10 2 12v10l-2 21-5 12-2 5-5 8-3 2-5 6-5 5-10 6-6 4-7 3-10 3-13 1h-14l-14-2-12-5-6-3-6-4-1-4-9-3-3-9-3-1v-2h-2l-2-4-3-2-1-6h-2l-2-12-2-6-1-19 2-13 4-13 4-8 5-8 3-1-2 5-6 10-5 14-2 12v12l3 16 5 13 7 11 9 10 10 8 14 7 16 4h23l15-4 16-8 13-11 10-14 6-14 3-14v-19l-3-13-5-13-8-12-2-4h-2l-5-5-3-4z" fill="#130114"/>
<path transform="translate(524,686)" d="m0 0h2l-2 6-4 8 1 8 3 2 7-1 4-1v-2l11-8 2-7-11 9-8 4-4-1 6-10 4-4-1 6-4 4-1 2 5-2 2-3 4-1 5-5 5-2v3l3 1-4 6-1 7 2 4h7l11-8 5-4h2l1 9 7-1 10-8 7-6h2l1-2-1 7-4 11h-2l-1 3-2-3 4-1-1-5 2-2 1-4-4 4h-2l-1 3-3 1-6 6-8-1-3-5h-3l-4 5-8 4h-7l-6-3 2-7-4 2-7 7-10 3-6-3-1-3v-11l1-3-5 1v3h-8l-1 3-5 2v5l-3 5-2 1-1 4 2 1-2 2-2-1-2 8-4 7-2 6-5 2-2 4-3 3-6-1v-3l4 1 5-4 3-5h2l2-6 8-16 5-13 7-6 6-2z" fill="#130114"/>
<path transform="translate(498,657)" d="m0 0 5 1 2 3-1 5-11 15-5 7-5 5-3 4h-2v2l-9 6-2-1 2-10 7-14 13-16z"/>
<path transform="translate(463,402)" d="m0 0 15 1 12 4 11 6 12 11 7 11 5 13 1 5v19l-4 14-6 11-11 12-11 7-12 5-19 2-16-3-14-7-1-2 6 1v2l9 2 2 2 12 2 15-1 9-2 5-3 6-2 5-5 5-1 1-6 4 1 2-4 3-7h2l3-9 2-7 1-14-1-9-2-1-1-9-1-2-3-1v-5l-2-1v-4l-3-1-5-5v-2l-4-2-5-4-7-3v-2l-11-2-2-2h-15l-13 2 3 1v2l-7-1-6 1v2l-5 2-1-2 14-7z" fill="#130114"/>
<path transform="translate(668,688)" d="m0 0h2v19l7-1 13-11 1 4 1 5 3 1 8-3 10-6 4-2h4l-2 8-4 10-4 4-8 7-7 8-7 12-2 10-3-1v-7l6-10 3-3 1-4 4-4h2l1-3 5-5 1-2 5-1 1-5-1-2h-2v-2h4l4-5v-2l-9 5-4 1v2l-7 4-5-1-5-4v-2l-5 2-6 6-9-1-2-5 1-6h-2v-2h2l-1-4-2 1v4l-6 1-1 3h-3l-1 3-5 5-5 3-4-4v-6l-6 1 5-5 6-2-2 6v6l4-1 2-3h2l2-4 9-8z" fill="#130114"/>
<path transform="translate(671,642)" d="m0 0h6l1 1v9l-2 10-5 8-4 7-4 1-2 5 11-5 7 2 2 2v8l-2 5 7-6 8-6 3-4 7 1 1 2v7h-2l-1 5 4-2 1-2 6-3 9-7 8 1-1 2-7 1-18 12-6 3 1-6 3-5 1-5-3-1-9 7-13 10h-2l1-7 1-9-2-1h-7l-15 10 2-6 5-9h3l2-4 7-13 2-7v-7l-4-1-9 14-1-2 7-14z" fill="#130114"/>
<path transform="translate(464,427)" d="m0 0 16 5 7 3v2l4 2 4 4 2 5 2 1 2 6 1 17-6 12-6 8-10 6-15 2h-7l-7-3v-2h-3v-2l-4-1v-2h-2v-2l-5-2v-5l-3-1-2-11v-11l2-9h2l2-5 6-8 3-1 1-2 7-2 4-3zm-1 4-9 2-8 5-5 5-5 7-2 5-1 13 3 11 5 8 8 6 9 4 5 1h8l10-3 9-6 6-8 3-7 1-5v-9l-3-10-7-10-9-6-5-2z" fill="#130114"/>
<path transform="translate(668,688)" d="m0 0h2v19l7-1 13-11 1 4-2 3-6 2-6 6-9-1-2-5 1-6h-2v-2h2l-1-4-2 1v4l-6 1-1 3h-3l-1 3-5 5-5 3-4-4v-6l-6 1 5-5 6-2-2 6v6l4-1 2-3h2l2-4 9-8z" fill="#120013"/>
<path transform="translate(498,657)" d="m0 0 1 3h-3l-1 4-4 1-3 3-2 4h-2l-2 5-3 1-2 5-3 7-3 6v3l2 1v-2l5-2 1-3 4-4 5-6 3-5 3-3 2-4h3l-1-7 2-1 2 2 2 1-11 15-5 7-5 5-3 4h-2v2l-9 6-2-1 2-10 7-14 13-16z" fill="#130114"/>
<path transform="translate(405,415)" d="m0 0v3l-8 14-5 16-1 8v12l3 16 5 13 7 11v3l-3-2v-2h-2l-2-4-3-2-1-6h-2l-2-12-2-6-1-19 2-13 4-13 4-8 5-8z" fill="#130114"/>
<path transform="translate(459,384)" d="m0 0 16 1 11 1 11 5 7 3 6 3 2 4-5-2-14-7-15-4h-24l-15 4-14 7-5 4h-2l2-4 5-4 15-6 8-1v-2l4-1z" fill="#130114"/>
<path transform="translate(434,687)" d="m0 0 4 1 2 4-1 5-7 8-3 2-4-1-1-5 2-6 5-6z" fill="#020002"/>
<path transform="translate(365,687)" d="m0 0h4l2 4-1 7-6 7-4 2-4-1v-7l3-6 5-5z" fill="#020002"/>
<path transform="translate(566,678)" d="m0 0h11l4 1 5-1 2 3v7l-4 7 5-5 6-3 5-4h2l1-4 5-1-2 1-2 4-9 7-5 3-4 4h-2v2h-3l3-9 1-2v-6l-7 2-2-3-9 1-10 6-3 2 1-6 7-3z" fill="#130114"/>
<path transform="translate(427,417)" d="m0 0 2 1v2l-5 3-4 6-4 4-4 8v5l-2 1-1 6v19l4 14 3 4 2 7 4 2 5 6 5 5h-3l-5-4-9-11-6-13-3-13v-13l4-16 6-11 5-7h2l1-3z" fill="#130114"/>
<path transform="translate(659,661)" d="m0 0 1 2-9 19-9 9-8 5-1-2 2-5v-7l-3-2-8 1-10 8h-2v-7l-2-4 3 1 3 5 3-3v-2l14-2 5 4v9l3-2 2-1v-2h2v-2l3-2 3-7 3-3z" fill="#130114"/>
<path transform="translate(486,446)" d="m0 0 5 5 3 9v9l-4 11-7 7-8 4-4 1h-9l-10-4-3-3 3-1 3 2v2l9 1 5 1 6-2 2-3 5 1v-2l3-2 1-3h2l1-6-2-1 2-2h2v-11l-5-11z" fill="#130114"/>
<path transform="translate(590,710)" d="m0 0 4 1-7 11-4 8-1 6 3 6 5-1 4-6 8-20 2 1 1 6h-3l-3 9-2 5-1 5-8 4-6-1-2-5v-9l4-8 3-7z" fill="#130114"/>
<path transform="translate(602,689)" d="m0 0 1 4-4 12-1 2h-2l-1 3-2-3 4-1-1-5 2-2 1-4-4 4h-2l-1 3-3 1-6 6-8-1-3-5h-3l-4 5-4 2-3-1 15-12h2l1 9 7-1 10-8 7-6h2z" fill="#130114"/>
<path transform="translate(456,448)" d="m0 0h5l-5 4-4 5-1 3v9l3 6 5 4 3 1h10l6-4 4-6v-14l2 1 1 12-4 9-4 1v2l-2 1h-14l-7-2-5-6-1-13 2-7 4-5z" fill="#130114"/>
<path transform="translate(549,688)" d="m0 0 1 3 3 1-4 6-1 7 2 4h8l-1 3h-7l-6-3 2-7-3-1 4-5 1-5-11 9-8 4-4-1 6-10 4-4-1 6-4 4-1 2 5-2 2-3 4-1 5-5z" fill="#130114"/>
<path transform="translate(486,711)" d="m0 0 1 2-11 23-5 5-1-2 2-9 5-10 5-6h2v-2z" fill="#0F0010"/>
<path transform="translate(625,686)" d="m0 0 4 1-3 6-5 6-5 2h-6l-2 1 2-5 10-9z" fill="#130114"/>
<path transform="translate(569,688)" d="m0 0h6l-2 4-8 7-8 5h-3l1-5 2-3h2v-2l7-5z" fill="#130114"/>
<path transform="translate(708,722)" d="m0 0 1 2-8 16-6 9-3 1 1-7 6-12h2l2-4z" fill="#130114"/>
<path transform="translate(495,686)" d="m0 0 1 4-6 11-9 9-3 5h-2l2-6 5-5h-3v-2l9-9 1-3z" fill="#0C000C"/>
<path transform="translate(718,720)" d="m0 0 1 4v4l-1 5-2-2-6 12h-2l-2 6-3 3-2 4-6 3-8-4 1-2 5 3 5-2 7-9 8-14z" fill="#130114"/>
<path transform="translate(259,648)" d="m0 0 2 4-8 4-6 6-1 4-3 1-2-2v-6l10-7z" fill="#FDC6FE"/>
<path transform="translate(502,643)" d="m0 0h10l4 5v8l-3 1-1 5h-2l3-9-1-8-11 2-11 7-5 3 2-4 5-5 5-2 5-1z" fill="#130114"/>
<path transform="translate(461,689)" d="m0 0 3 1-2 5v9l3 3 2 1h7l4-2-1 3h-2l-2 4-5-2h-5l-6-7h2v-11z" fill="#130114"/>
<path transform="translate(730,683)" d="m0 0 3 2-1 6-3 10-2 5 8 1 1 3-13 1 1-6 5-13z" fill="#130114"/>
<path transform="translate(538,323)" d="m0 0 7 1-2 2h-72v-1l67-1z" fill="#130114"/>
<path transform="translate(459,442)" d="m0 0h5l2 3 9 2 2 1v2l5 1v5l-8-6-2-1-11-1v-1l-5-1 1-3z" fill="#130114"/>
<path transform="translate(462,437)" d="m0 0h9l11 4 3 4-6-2-8-3h-8l-7 1-3 1-1 3-4-1 7-5z" fill="#130114"/>
<path transform="translate(534,689)" d="m0 0 1 4-5 6-1 2 5-2 2-3 4-1 5-5v3l-8 7-8 4-4-1 6-10z" fill="#120013"/>
<path transform="translate(428,290)" d="m0 0h1v7 2 6l-7 14-1-3 6-25z" fill="#0F000F"/>
<path transform="translate(631,703)" d="m0 0h2l-2 4-3 2-13 3h-6l-3-2-2 5-1-2 3-6 3 2h7l12-4z" fill="#130114"/>
<path transform="translate(509,650)" d="m0 0h2l-2 4-2 5 1 4-1 3-3-2-1-4-4-4 7-5z" fill="#110012"/>
<path transform="translate(668,688)" d="m0 0h2v5l-2 1-2-2-2 1v4l-6 1-1 3h-3l-1 3-3-2 11-10z" fill="#130114"/>
<path transform="translate(524,677)" d="m0 0 2 1-9 7-11 6-4 2 3-9 2-2 2 3 10-4z" fill="#130114"/>
<path transform="translate(393,488)" d="m0 0h2l8 16 4 5-1 2-3-2v-2h-2l-2-4-3-2-1-6h-2l-1-6z" fill="#120013"/>
<path transform="translate(475,715)" d="m0 0 1 2-1 2h-2l-2 5-4 9v13l-3-4 1-13 2-5h1l2-6h4z" fill="#130114"/>
<path transform="translate(489,693)" d="m0 0v3l-1 2h-2v4l2 1-7 7-3 5h-2l2-6 5-5h-3v-2l5-5z" fill="#130114"/>
<path transform="translate(616,693)" d="m0 0 4 1-1 6-3 1h-6l-2 1 2-5z"/>
<path transform="translate(486,711)" d="m0 0 1 2-6 12-2-4-2 1 2-4 3-4h2v-2z" fill="#120013"/>
<path transform="translate(481,656)" d="m0 0 4 2-10 11-4 5-1-2 6-9 5-5z" fill="#130114"/>
<path transform="translate(698,736)" d="m0 0h2l-2 9-5 5h-1l1-7 4-5z" fill="#09000A"/>
<path transform="translate(447,445)" d="m0 0 2 2-3 2-3 7-3 12h-1v-8l4-10z" fill="#130114"/>
<path transform="translate(593,716)" d="m0 0 1 3-5 12-3 2 2-9 3-5z" fill="#130114"/>
<path transform="translate(529,674)" d="m0 0 6 5 2 8-2 2-4-11-5-1z" fill="#130114"/>
<path transform="translate(557,696)" d="m0 0 2 1-1 3 5-2-2 4-4 2h-3l1-5z" fill="#130114"/>
<path transform="translate(702,750)" d="m0 0 1 2-2 4-6 3-8-4 1-2 5 3 5-2z" fill="#130114"/>
<path transform="translate(565,692)" d="m0 0h4v2h-2v2l-7 4h-2l1-4z"/>
<path transform="translate(412,403)" d="m0 0h6l-6 7-6 5 1-4 3-3h2z" fill="#130114"/>
<path transform="translate(642,696)" d="m0 0 2 1-2 5-7 1-2-1z" fill="#110012"/>
<path transform="translate(625,686)" d="m0 0 4 1-2 5-5 1-1-4h2v-2z" fill="#080008"/>
<path transform="translate(440,468)" d="m0 0 2 3 3 4 3 7v3l-5-6-3-6z" fill="#130114"/>
<path transform="translate(708,722)" d="m0 0 1 2-4 8-3 1-1-4z" fill="#100010"/>
<path transform="translate(718,720)" d="m0 0 1 4v4l-1 5-4-3 2-6z" fill="#110012"/>
<path transform="translate(469,674)" d="m0 0h2l-2 5-3 6-3 4v-5l4-6z" fill="#130114"/>
<path transform="translate(611,696)" d="m0 0 1 2 6-1 1 3-3 1h-6l-2 1 2-5z" fill="#130114"/>
<path transform="translate(626,539)" d="m0 0 1 2-1 2h-2l-1 5-3 1v-4l4-5z" fill="#0E000F"/>
<path transform="translate(726,713)" d="m0 0h6l4 4 3 2-3 1-4-2v-3l-6-1z" fill="#130114"/>
</svg>
